Coordinates
version=1
nRows=16
nColumns=33
inDegrees=yes

Units are S.I. units (second, meters, Newtons, ...)
Angles are in degrees.

endheader
time	ground_thorax_rot_x	ground_thorax_rot_y	ground_thorax_rot_z	ground_thorax_tx	ground_thorax_ty	ground_thorax_tz	clav_prot_r	clav_elev_r	scapula_abduction_r	scapula_elevation_r	scapula_upward_rot_r	scapula_winging_r	shoulder_elv_r	plane_of_elev_r	axial_rot_r	elbow_flexion_r	pro_sup_r	wrist_flex_r	wrist_dev_r	clav_prot_l	clav_elev_l	scapula_abduction_l	scapula_elevation_l	scapula_upward_rot_l	scapula_winging_l	shoulder_elv_l	plane_of_elev_l	axial_rot_l	elbow_flexion_l	pro_sup_l	wrist_flex_l	wrist_dev_l
      6.35000000	    -25.77571171	    -30.49771607	     46.24560936	    -83.74550659	    783.23503174	      6.90588965	      7.15670729	    -45.00000000	     37.86560352	    -45.00000000	    -39.66379933	  -2617.07040740	  -2635.23109710	    149.41428815	   -111.24535094	    730.92257924	     30.92470915	     18.21879523	      9.71444746	     14.44271812	     37.52547321	    -32.20046878	    -45.00000000	    -45.00000000	   1516.44686302	  -2617.36547436	    135.39374603	   -179.99999979	      9.50692979	     42.51673739	      8.89452336	    -22.92390602
      6.36000000	    -26.07070469	    -30.14616390	     45.69466816	    -86.13659674	    783.82251872	      6.63327453	      7.12366665	    -45.00000000	     38.01194235	    -45.00000000	    -39.12430372	  -2617.19908938	  -2635.11272340	    149.36524327	   -111.34318308	    730.97710737	     31.08113318	     18.28037706	      9.64512934	     14.45681263	     37.52431797	    -32.44215334	    -45.00000000	    -45.00000000	   1516.63095978	  -2617.18168376	    135.33310621	   -179.99999979	      9.68082644	     42.26331234	      8.81533938	    -22.95465874
      6.37000000	    -26.39482763	    -29.76831431	     45.11333780	    -88.58339878	    784.43296396	      6.37720485	      7.07723078	    -45.00000000	     38.15194251	    -45.00000000	    -38.60039700	  -2617.30635097	  -2635.00830627	    149.31971274	   -111.46191388	    730.99220120	     31.24162672	     18.33336413	      9.57978506	     14.48489364	     37.53499041	    -32.71562065	    -45.00000000	    -45.00000000	   1516.83171680	  -2617.01890637	    135.25619550	   -179.99999979	      9.79639807	     42.02103637	      8.74060793	    -22.97000369
      6.38000000	    -26.66005066	    -29.42544284	     44.62346775	    -91.07979394	    785.06548276	      6.13816461	      7.04238998	    -45.00000000	     38.28014477	    -45.00000000	    -38.17393537	  -2617.43911802	  -2634.84379463	    149.25630825	   -111.54001895	    731.12264626	     31.40450660	     18.41197776	      9.50707973	     14.54169189	     37.57286045	    -32.91313920	    -45.00000000	    -45.00000000	   1517.02975957	  -2616.84468658	    135.19247261	   -179.99999979	      9.93459548	     41.75966603	      8.64909061	    -22.96652753
      6.39000000	    -26.93103292	    -29.07665717	     44.12032453	    -93.62124074	    785.72026138	      5.91585645	      7.01228485	    -45.00000000	     38.40670970	    -45.00000000	    -37.74359262	  -2617.56771474	  -2634.68013455	    149.19404342	   -111.65138431	    731.23674043	     31.57767155	     18.48950973	      9.44018307	     14.57840676	     37.59869892	    -33.11856968	    -45.00000000	    -45.00000000	   1517.23150026	  -2616.67555721	    135.12809918	   -179.99999979	     10.06627054	     41.49568982	      8.56763488	    -22.96397272
      6.40000000	    -27.10799156	    -28.79610942	     43.74683521	    -96.20550508	    786.39793527	      5.71014911	      7.00933143	    -45.00000000	     38.53533763	    -45.00000000	    -37.51170854	  -2617.70936963	  -2634.40764090	    149.09876332	   -111.70935714	    731.49534692	     31.76709591	     18.59548034	      9.36103199	     14.66511150	     37.65828351	    -33.21351741	    -45.00000000	    -45.00000000	   1517.41832497	  -2616.51670573	    135.08152158	   -179.99999979	     10.18945930	     41.20437963	      8.47212879	    -22.92919420
      6.41000000	    -27.41533297	    -28.42946283	     43.17575834	    -98.82712996	    787.09833389	      5.52147211	      6.97341214	    -45.00000000	     38.65978903	    -45.00000000	    -37.00275294	  -2617.82182011	  -2634.28161446	    149.03219591	   -111.87645383	    731.54366116	     31.97529822	     18.66097759	      9.30595927	     14.66315964	     37.66519122	    -33.46568636	    -45.00000000	    -45.00000000	   1517.63404851	  -2616.32651589	    135.02025653	   -179.99999979	     10.30100258	     40.95348249	      8.40425332	    -22.92654318
      6.42000000	    -27.67902815	    -28.05493965	     42.66344676	   -101.48506209	    787.82252078	      5.35062911	      6.95256897	    -45.00000000	     38.76168827	    -45.00000000	    -36.60242202	  -2617.94760517	  -2634.09818303	    148.94002905	   -112.03119600	    731.63839166	     32.18237350	     18.73021195	      9.23652194	     14.68658208	     37.66367646	    -33.66447324	    -45.00000000	    -45.00000000	   1517.86352551	  -2616.18497831	    134.94748809	   -179.99999979	     10.46622711	     40.72532866	      8.32732079	    -22.92872583
      6.43000000	    -27.94372943	    -27.72161670	     42.18064338	   -104.17219162	    788.57118803	      5.19894293	      6.92884793	    -45.00000000	     38.86326069	    -45.00000000	    -36.26509168	  -2618.08125957	  -2633.92020510	    148.85223109	   -112.13366470	    731.78184821	     32.39318819	     18.80388509	      9.15386702	     14.72019108	     37.68496097	    -33.83572784	    -45.00000000	    -45.00000000	   1518.08347710	  -2616.03116088	    134.88587386	   -179.99999979	     10.55931699	     40.52528902	      8.23878946	    -22.90589799
      6.44000000	    -28.25839667	    -27.30297629	     41.60185521	   -106.87961140	    789.34611958	      5.06797016	      6.86490520	    -45.00000000	     38.97422793	    -45.00000000	    -35.66088306	  -2618.19377687	  -2633.78156391	    148.82568419	   -112.32566427	    731.79841749	     32.59963952	     18.85758841	      9.09643294	     14.74620830	     37.70746599	    -34.08480517	    -45.00000000	    -45.00000000	   1518.27665912	  -2615.85887084	    134.86037999	   -179.99999979	     10.71292048	     40.34584487	      8.12656232	    -22.89540692
      6.45000000	    -28.59814001	    -26.89153265	     41.09780065	   -109.59989668	    790.15040204	      4.95858423	      6.81498182	    -45.00000000	     39.08090133	    -45.00000000	    -35.27298588	  -2618.34137904	  -2633.68378119	    148.79463546	   -112.46111388	    731.82847522	     32.78350934	     18.89812964	      8.99660251	     14.74821946	     37.69222158	    -34.36722721	    -45.00000000	    -45.00000000	   1518.54028039	  -2615.71058863	    134.74448557	   -179.99999979	     10.75381283	     40.18580025	      8.02345001	    -22.86851766
      6.46000000	    -28.77619598	    -26.58974702	     40.68510346	   -112.32437917	    790.98710088	      4.87124349	      6.79810960	    -45.00000000	     39.18890899	    -45.00000000	    -35.02991064	  -2618.45860633	  -2633.39567401	    148.67501193	   -112.59866295	    732.05499262	     32.92792183	     18.99019795	      8.90580456	     14.83109896	     37.75559692	    -34.43307773	    -45.00000000	    -45.00000000	   1518.71805338	  -2615.54782854	    134.73219590	   -179.99999979	     10.88381193	     39.97841804	      7.86841278	    -22.82239048
      6.47000000	    -29.01403797	    -26.25411265	     40.24698131	   -115.04846449	    791.85899016	      4.80520164	      6.78158583	    -45.00000000	     39.29632095	    -45.00000000	    -34.69297947	  -2618.59573432	  -2633.18881231	    148.60249471	   -112.77083670	    732.17252585	     33.04449599	     19.05179107	      8.80919227	     14.85970577	     37.76373158	    -34.59201121	    -45.00000000	    -45.00000000	   1518.92352607	  -2615.37698430	    134.69813306	   -179.99999979	     10.96602806	     39.73517296	      7.74410084	    -22.78732198
      6.48000000	    -29.26126808	    -25.91886341	     39.79009473	   -117.76653930	    792.76541170	      4.76107295	      6.75914309	    -45.00000000	     39.39163016	    -45.00000000	    -34.34245671	  -2618.72463055	  -2633.00105921	    148.53474577	   -112.97846643	    732.26898897	     33.10234788	     19.10656814	      8.71910744	     14.89540872	     37.76561031	    -34.75084476	    -45.00000000	    -45.00000000	   1519.13613192	  -2615.22829966	    134.65611867	   -179.99999979	     11.03538905	     39.42217181	      7.62677402	    -22.74614375
      6.49000000	    -29.50981776	    -25.56686096	     39.32945522	   -120.48535521	    793.70640360	      4.73862881	      6.72640761	    -45.00000000	     39.48090793	    -45.00000000	    -33.97248067	  -2618.85581721	  -2632.81231462	    148.46167649	   -113.18956313	    732.33210680	     33.08777594	     19.15041467	      8.63291316	     14.91922786	     37.77715576	    -34.91503893	    -45.00000000	    -45.00000000	   1519.35548457	  -2615.08321553	    134.61023257	   -179.99999979	     11.11235754	     39.01752467	      7.51925999	    -22.70594229
      6.50000000	    -29.73152911	    -25.24899333	     38.92317730	   -123.21232667	    794.67949917	      4.73779367	      6.71445068	    -45.00000000	     39.56013376	    -45.00000000	    -33.68729685	  -2618.98947745	  -2632.61239863	    148.37452399	   -113.37291717	    732.41519444	     32.97906952	     19.18923056	      8.55417358	     14.95442487	     37.77779748	    -35.05474913	    -45.00000000	    -45.00000000	   1519.57350729	  -2614.92490925	    134.57736934	   -179.99999979	     11.14854526	     38.50113394	      7.43192008	    -22.64812180
